{"asset":{"version":"2.0","generator":"Blockbench 4.12.5 glTF exporter"},"scenes":[{"nodes":[15],"name":"blockbench_export"}],"scene":0,"nodes":[{"name":"bone"},{"name":"bone"},{"translation":[-7.194000297433229e-18,-0.005779181000525206,0.043744043132878135],"name":"body","mesh":0},{"translation":[-7.194000297433229e-18,-0.005779181000525206,0.043744043132878135],"name":"light","mesh":1},{"translation":[-7.194000297433229e-18,-0.005779181000525206,0.043744043132878135],"name":"fender","mesh":2},{"translation":[-7.194000297433229e-18,-0.005779181000525206,0.043744043132878135],"name":"seat","mesh":3},{"translation":[0,0.0229840487132353,0.0970703125],"name":"wheel","mesh":4},{"translation":[-7.194000297433229e-18,-0.028763229713760507,-0.05332626936712186],"name":"wheel","children":[6]},{"translation":[0,0.0229840487132353,0.018945312500000012],"name":"wheel","mesh":5},{"translation":[-7.194000297433229e-18,-0.028763229713760507,0.024798730632878123],"name":"wheel4","children":[8]},{"translation":[0,0.0229840487132353,0.0970703125],"name":"wheel","mesh":6},{"translation":[-7.194000297433229e-18,-0.028763229713760507,-0.05332626936712186],"name":"wheel2","children":[10]},{"translation":[0,0.0229840487132353,0.018945312500000012],"name":"wheel","mesh":7},{"translation":[-7.194000297433229e-18,-0.028763229713760507,0.024798730632878123],"name":"wheel3","children":[12]},{"translation":[7.194000297433229e-18,0.028763229713760507,0.003326269367121862],"name":"Car","children":[2,3,4,5,7,9,11,13]},{"children":[0,1,14]}],"bufferViews":[{"buffer":0,"byteOffset":0,"byteLength":5952,"target":34962,"byteStride":12},{"buffer":0,"byteOffset":5952,"byteLength":5952,"target":34962,"byteStride":12},{"buffer":0,"byteOffset":11904,"byteLength":3968,"target":34962,"byteStride":8},{"buffer":0,"byteOffset":15872,"byteLength":1488,"target":34963},{"buffer":0,"byteOffset":17360,"byteLength":576,"target":34962,"byteStride":12},{"buffer":0,"byteOffset":17936,"byteLength":576,"target":34962,"byteStride":12},{"buffer":0,"byteOffset":18512,"byteLength":384,"target":34962,"byteStride":8},{"buffer":0,"byteOffset":18896,"byteLength":144,"target":34963},{"buffer":0,"byteOffset":19040,"byteLength":288,"target":34962,"byteStride":12},{"buffer":0,"byteOffset":19328,"byteLength":288,"target":34962,"byteStride":12},{"buffer":0,"byteOffset":19616,"byteLength":192,"target":34962,"byteStride":8},{"buffer":0,"byteOffset":19808,"byteLength":72,"target":34963},{"buffer":0,"byteOffset":19880,"byteLength":2592,"target":34962,"byteStride":12},{"buffer":0,"byteOffset":22472,"byteLength":2592,"target":34962,"byteStride":12},{"buffer":0,"byteOffset":25064,"byteLength":1728,"target":34962,"byteStride":8},{"buffer":0,"byteOffset":26792,"byteLength":648,"target":34963},{"buffer":0,"byteOffset":27440,"byteLength":288,"target":34962,"byteStride":12},{"buffer":0,"byteOffset":27728,"byteLength":288,"target":34962,"byteStride":12},{"buffer":0,"byteOffset":28016,"byteLength":192,"target":34962,"byteStride":8},{"buffer":0,"byteOffset":28208,"byteLength":72,"target":34963},{"buffer":0,"byteOffset":28280,"byteLength":288,"target":34962,"byteStride":12},{"buffer":0,"byteOffset":28568,"byteLength":288,"target":34962,"byteStride":12},{"buffer":0,"byteOffset":28856,"byteLength":192,"target":34962,"byteStride":8},{"buffer":0,"byteOffset":29048,"byteLength":72,"target":34963},{"buffer":0,"byteOffset":29120,"byteLength":288,"target":34962,"byteStride":12},{"buffer":0,"byteOffset":29408,"byteLength":288,"target":34962,"byteStride":12},{"buffer":0,"byteOffset":29696,"byteLength":192,"target":34962,"byteStride":8},{"buffer":0,"byteOffset":29888,"byteLength":72,"target":34963},{"buffer":0,"byteOffset":29960,"byteLength":288,"target":34962,"byteStride":12},{"buffer":0,"byteOffset":30248,"byteLength":288,"target":34962,"byteStride":12},{"buffer":0,"byteOffset":30536,"byteLength":192,"target":34962,"byteStride":8},{"buffer":0,"byteOffset":30728,"byteLength":72,"target":34963}],"buffers":[{"byteLength":30800,"uri":"data:application/octet-stream;base64,"}],"accessors":[{"bufferView":0,"componentType":5126,"count":496,"max":[0.06562499701976776,0.05826595053076744,0.07480468600988388],"min":[-0.06562499701976776,-0.02298404835164547,-0.08144531399011612],"type":"VEC3"},{"bufferView":1,"componentType":5126,"count":496,"max":[1,1,1],"min":[-1,-1,-1],"type":"VEC3"},{"bufferView":2,"componentType":5126,"count":496,"max":[0.5171874761581421,0.46875],"min":[0,0],"type":"VEC2"},{"bufferView":3,"componentType":5123,"count":744,"max":[495],"min":[0],"type":"SCALAR"},{"bufferView":4,"componentType":5126,"count":48,"max":[0.0625,0.0145159512758255,-0.08457031100988388],"min":[-0.0625,0.0020159513223916292,-0.08769531548023224],"type":"VEC3"},{"bufferView":5,"componentType":5126,"count":48,"max":[1,1,1],"min":[-1,-1,-0.9922778606414795],"type":"VEC3"},{"bufferView":6,"componentType":5126,"count":48,"max":[0.296875,0.3125],"min":[0,0],"type":"VEC2"},{"bufferView":7,"componentType":5123,"count":72,"max":[47],"min":[0],"type":"SCALAR"},{"bufferView":8,"componentType":5126,"count":24,"max":[0.05937499925494194,-0.0057965489104390144,-0.0830078125],"min":[-0.05937499925494194,-0.01985904946923256,-0.08769531548023224],"type":"VEC3"},{"bufferView":9,"componentType":5126,"count":24,"max":[1,1,1],"min":[-1,-0.8320503234863281,-1],"type":"VEC3"},{"bufferView":10,"componentType":5126,"count":24,"max":[0.3125,0.2640625238418579],"min":[0,0],"type":"VEC2"},{"bufferView":11,"componentType":5123,"count":36,"max":[23],"min":[0],"type":"SCALAR"},{"bufferView":12,"componentType":5126,"count":216,"max":[0.05000000074505806,0.0379534512758255,0.0185546875],"min":[-0.05000000074505806,-0.01829654909670353,-0.0283203125],"type":"VEC3"},{"bufferView":13,"componentType":5126,"count":216,"max":[1,1,1],"min":[-1,-1,-1],"type":"VEC3"},{"bufferView":14,"componentType":5126,"count":216,"max":[0.550000011920929,0.5625],"min":[0,0],"type":"VEC2"},{"bufferView":15,"componentType":5123,"count":324,"max":[215],"min":[0],"type":"SCALAR"},{"bufferView":16,"componentType":5126,"count":24,"max":[0.078125,0.00045345129910856485,-0.0283203125],"min":[0.05000000074505806,-0.02767154946923256,-0.05644531175494194],"type":"VEC3"},{"bufferView":17,"componentType":5126,"count":24,"max":[1,1,1],"min":[-1,-1,-1],"type":"VEC3"},{"bufferView":18,"componentType":5126,"count":24,"max":[0.3125,0.3125],"min":[0,0],"type":"VEC2"},{"bufferView":19,"componentType":5123,"count":36,"max":[23],"min":[0],"type":"SCALAR"},{"bufferView":20,"componentType":5126,"count":24,"max":[0.078125,0.00045345129910856485,0.0498046875],"min":[0.05000000074505806,-0.02767154946923256,0.02167968824505806],"type":"VEC3"},{"bufferView":21,"componentType":5126,"count":24,"max":[1,1,1],"min":[-1,-1,-1],"type":"VEC3"},{"bufferView":22,"componentType":5126,"count":24,"max":[0.3125,0.3125],"min":[0,0],"type":"VEC2"},{"bufferView":23,"componentType":5123,"count":36,"max":[23],"min":[0],"type":"SCALAR"},{"bufferView":24,"componentType":5126,"count":24,"max":[-0.05000000074505806,0.00045345129910856485,-0.0283203125],"min":[-0.078125,-0.02767154946923256,-0.05644531175494194],"type":"VEC3"},{"bufferView":25,"componentType":5126,"count":24,"max":[1,1,1],"min":[-1,-1,-1],"type":"VEC3"},{"bufferView":26,"componentType":5126,"count":24,"max":[0.3125,0.3125],"min":[0,0],"type":"VEC2"},{"bufferView":27,"componentType":5123,"count":36,"max":[23],"min":[0],"type":"SCALAR"},{"bufferView":28,"componentType":5126,"count":24,"max":[-0.05000000074505806,0.00045345129910856485,0.0498046875],"min":[-0.078125,-0.02767154946923256,0.02167968824505806],"type":"VEC3"},{"bufferView":29,"componentType":5126,"count":24,"max":[1,1,1],"min":[-1,-1,-1],"type":"VEC3"},{"bufferView":30,"componentType":5126,"count":24,"max":[0.3125,0.3125],"min":[0,0],"type":"VEC2"},{"bufferView":31,"componentType":5123,"count":36,"max":[23],"min":[0],"type":"SCALAR"}],"materials":[{"pbrMetallicRoughness":{"metallicFactor":0,"roughnessFactor":1,"baseColorTexture":{"index":0}},"alphaMode":"MASK","alphaCutoff":0.05,"doubleSided":true},{"pbrMetallicRoughness":{"metallicFactor":0,"roughnessFactor":1,"baseColorTexture":{"index":1}},"alphaMode":"MASK","alphaCutoff":0.05,"doubleSided":true},{"pbrMetallicRoughness":{"metallicFactor":0,"roughnessFactor":1,"baseColorTexture":{"index":2}},"alphaMode":"MASK","alphaCutoff":0.05,"doubleSided":true},{"pbrMetallicRoughness":{"metallicFactor":0,"roughnessFactor":1,"baseColorTexture":{"index":3}},"alphaMode":"MASK","alphaCutoff":0.05,"doubleSided":true},{"pbrMetallicRoughness":{"metallicFactor":0,"roughnessFactor":1,"baseColorTexture":{"index":4}},"alphaMode":"MASK","alphaCutoff":0.05,"doubleSided":true}],"textures":[{"sampler":0,"source":0,"name":"cartexture.png"},{"sampler":1,"source":1,"name":"lighttexture.png"},{"sampler":2,"source":2,"name":"texturefender.png"},{"sampler":3,"source":3,"name":"textureseat"},{"sampler":4,"source":4,"name":"texturewheel.png"}],"samplers":[{"magFilter":9728,"minFilter":9728,"wrapS":33071,"wrapT":33071},{"magFilter":9728,"minFilter":9728,"wrapS":33071,"wrapT":33071},{"magFilter":9728,"minFilter":9728,"wrapS":33071,"wrapT":33071},{"magFilter":9728,"minFilter":9728,"wrapS":33071,"wrapT":33071},{"magFilter":9728,"minFilter":9728,"wrapS":33071,"wrapT":33071}],"images":[{"mimeType":"image/png","uri":"data:image/png;base64,"},{"mimeType":"image/png","uri":"data:image/png;base64,"},{"mimeType":"image/png","uri":"data:image/png;base64,"},{"mimeType":"image/png","uri":"data:image/png;base64,"},{"mimeType":"image/png","uri":"data:image/png;base64,"}],"meshes":[{"primitives":[{"mode":4,"attributes":{"POSITION":0,"NORMAL":1,"TEXCOORD_0":2},"indices":3,"material":0}]},{"primitives":[{"mode":4,"attributes":{"POSITION":4,"NORMAL":5,"TEXCOORD_0":6},"indices":7,"material":1}]},{"primitives":[{"mode":4,"attributes":{"POSITION":8,"NORMAL":9,"TEXCOORD_0":10},"indices":11,"material":2}]},{"primitives":[{"mode":4,"attributes":{"POSITION":12,"NORMAL":13,"TEXCOORD_0":14},"indices":15,"material":3}]},{"primitives":[{"mode":4,"attributes":{"POSITION":16,"NORMAL":17,"TEXCOORD_0":18},"indices":19,"material":4}]},{"primitives":[{"mode":4,"attributes":{"POSITION":20,"NORMAL":21,"TEXCOORD_0":22},"indices":23,"material":4}]},{"primitives":[{"mode":4,"attributes":{"POSITION":24,"NORMAL":25,"TEXCOORD_0":26},"indices":27,"material":4}]},{"primitives":[{"mode":4,"attributes":{"POSITION":28,"NORMAL":29,"TEXCOORD_0":30},"indices":31,"material":4}]}]}